<svg width="626" height="108" viewBox="0 0 626 108" fill="none" xmlns="http://www.w3.org/2000/svg">
<path d="M275.319 89.11C275.098 92.2041 273.618 94.2508 271.898 94.1835C270.14 94.1067 268.574 91.7332 268.708 88.6872C269.016 81.8263 269.217 70.4684 269.458 63.6075C269.957 49.242 270.294 34.8764 270.64 20.5013C270.678 18.9158 270.467 17.3111 270.169 15.7448C269.419 11.7571 265.97 10.1043 262.376 11.93C261.597 12.324 260.858 12.9294 260.031 13.1024C259.07 13.3041 257.696 13.5444 257.129 13.0447C256.591 12.5739 256.543 11.0748 256.822 10.21C257.975 6.65467 260.56 4.50224 264.192 3.78156C267.43 3.13775 270.303 3.92571 272.84 6.20306C276.453 9.4317 277.404 9.47011 281.469 6.89488C284.871 4.74245 288.387 2.9552 292.452 2.41709C297.141 1.80211 301.129 2.94557 304.271 6.63545C308.105 11.1421 309.931 11.3439 315.187 8.46116C318.31 6.75075 321.423 4.59834 324.796 3.85845C333.444 1.95586 340.536 5.46316 346.032 11.9685C352.643 19.7999 353.652 29.2936 353.056 39.066C352.038 55.8434 346.503 71.4869 340.613 87.0152C339.488 89.9844 338.201 92.9151 336.836 95.7786C336.087 97.3449 334.847 98.6806 332.858 98.1136C330.715 97.5083 329.985 95.6633 330.475 93.7415C331.436 89.9844 332.599 86.2657 333.906 82.6046C337.711 71.9578 341.948 61.4551 345.398 50.693C348.281 41.6989 348.752 32.4934 344.101 23.7107C339.508 15.0434 330.687 11.2286 321.981 14.2074C317.099 15.8794 314.063 19.3867 313.294 24.4218C312.746 28.0156 312.852 31.7247 312.746 35.3857C312.545 42.1601 311.142 67.9604 310.834 74.7252C310.748 76.599 310.277 78.713 307.846 79.0397C306.318 79.2415 304.579 77.1659 304.483 74.7252C304.329 71.0642 305.876 48.3579 305.847 44.6777C305.809 39.0083 306.059 33.3006 305.482 27.6889C305.146 24.4891 303.964 21.0586 302.196 18.3681C296.968 10.4022 287.667 10.3446 281.738 17.8781C278.202 22.3655 277.26 27.7177 277.001 33.1661C276.751 38.2685 276.953 43.3901 276.953 48.5021C277.097 48.5021 276.174 77.089 275.319 89.11Z" fill="#DCE0DE"/>
<path d="M172.416 79.6353C172.195 82.739 170.725 84.7761 168.995 84.7088C167.236 84.6416 165.661 82.2681 165.795 79.2125C166.103 72.3516 166.468 70.4586 166.708 63.5978C167.208 49.2322 167.544 34.8667 167.89 20.4916C167.928 18.9061 167.717 17.2917 167.429 15.7351C166.689 11.7473 163.229 10.0945 159.636 11.9107C158.857 12.3046 158.117 12.91 157.291 13.083C156.33 13.2944 154.956 13.525 154.389 13.0349C153.851 12.5641 153.803 11.0651 154.082 10.2002C155.225 6.63529 157.81 4.49246 161.442 3.77179C164.68 3.12798 167.554 3.91593 170.1 6.18367C173.713 9.41231 174.664 9.45075 178.729 6.87552C182.13 4.72309 185.647 2.92622 189.712 2.38811C194.401 1.77313 198.389 2.90698 201.541 6.60647C205.384 11.1131 207.2 11.3245 212.457 8.43218C215.58 6.72177 218.683 4.56936 222.066 3.82947C230.714 1.92687 237.805 5.43415 243.302 11.9395C249.922 19.7709 250.931 29.2646 250.336 39.037C249.317 55.8144 243.782 71.458 237.901 86.9862C236.777 89.965 235.49 92.8861 234.125 95.7496C233.376 97.3159 232.136 98.6516 230.156 98.0942C228.014 97.4889 227.264 95.6536 227.764 93.7221C228.754 89.8881 229.964 86.1022 231.29 82.3642C235.057 71.7943 239.256 61.3589 242.677 50.6736C245.55 41.6795 246.04 32.474 241.389 23.6914C236.796 15.024 227.975 11.1996 219.269 14.1784C214.388 15.8504 211.352 19.3577 210.583 24.3832C210.026 27.977 210.141 31.6861 210.035 35.3471C209.833 42.1215 209.776 48.8959 209.478 55.6607C209.391 57.5344 208.92 59.6484 206.489 59.9752C204.962 60.1866 203.222 58.1014 203.117 55.6607C202.963 51.99 203.155 48.3194 203.136 44.6487C203.097 38.9794 203.347 33.2716 202.771 27.6599C202.444 24.4601 201.252 21.0393 199.484 18.3391C194.257 10.3732 184.956 10.306 179.027 17.8395C175.491 22.3269 174.549 27.6695 174.289 33.1275C174.04 38.2299 174.241 43.3515 174.241 48.4635C174.347 48.4923 173.271 67.6143 172.416 79.6353Z" fill="#DCE0DE"/>
<path d="M525.231 30.9952C524.155 49.6368 520.138 67.673 515.151 85.5362C513.517 91.3689 511.913 97.2016 510.164 102.996C509.203 106.167 507.262 107.647 505.186 107.205C503.082 106.753 501.862 104.639 502.534 101.314C503.341 97.3457 504.783 93.5213 505.792 89.5912C508.3 79.7996 510.961 70.0272 513.085 60.1491C514.863 51.8949 516.15 43.5254 517.294 35.1559C517.793 31.4949 517.793 27.6417 517.265 23.9902C516.39 17.8692 512.335 14.3427 506.291 13.7181C498.335 12.8918 490.465 13.5548 483.076 16.9468C477.656 19.4355 474.418 23.8749 473.659 29.6692C472.717 36.8567 472.266 44.1212 471.756 51.3568C471.007 62.1093 470.411 72.8715 469.681 83.6336C469.594 84.8828 469.402 86.3722 468.662 87.2562C467.74 88.3613 466.241 89.5816 464.934 89.6393C463.118 89.7257 461.994 88.0922 462.032 86.18C462.128 82.0289 462.205 77.8778 462.541 73.7459C463.675 59.8224 465.011 45.9181 466.049 31.985C466.279 28.9389 465.856 25.7775 465.28 22.7603C464.463 18.5034 461.676 15.5823 457.948 13.4875C457.122 13.0263 456.267 12.5362 455.584 11.8924C453.932 10.3358 454.095 8.64457 455.911 7.24165C458.957 4.89704 465.03 4.95468 468.066 7.37616C468.874 8.01996 469.633 8.74066 470.459 9.37486C472.515 10.9411 474.562 10.8931 476.936 9.76883C481.817 7.45305 486.679 4.89705 491.83 3.40764C499.92 1.07264 508.098 1.20717 515.814 5.32945C520.868 8.0296 523.626 12.4017 524.385 17.8789C524.971 22.2126 524.971 26.6231 525.231 30.9952Z" fill="#DCE0DE"/>
<path d="M76.8921 39.7771C78.1124 33.5408 80.0823 27.4391 81.5813 21.2508C82.696 16.6577 81.3987 11.9493 76.6038 10.1524C75.9312 9.90256 75.297 9.54703 74.6916 9.16267C72.8083 7.99036 72.6449 6.44332 74.1824 4.81939C77.5167 1.32169 83.7914 2.67655 85.5402 7.59639C86.5876 10.5368 87.3371 13.8615 87.0777 16.9172C86.5011 23.8934 85.4153 30.8503 84.195 37.7496C82.4942 47.3298 80.2457 56.8332 80.8991 66.6825C81.3795 74.0142 85.079 79.77 93.6887 79.8565C96.1582 79.8853 98.7431 80.0102 101.068 79.3472C105.095 78.1941 109.121 76.7816 112.84 74.8886C119.374 71.5639 122.151 65.5294 123.265 58.6205C125.158 46.9839 126.994 35.3281 128.829 23.6819C129.137 21.7121 129.492 19.7326 129.588 17.7435C129.732 14.5341 128.964 11.5841 126.619 9.18188C125.735 8.26902 124.947 7.25048 124.188 6.23192C123.265 4.98274 122.823 3.67589 124.082 2.34023C125.303 1.05262 126.936 0.370388 128.387 1.36012C130.03 2.49399 131.664 3.97378 132.653 5.6842C135.229 10.1044 135.796 15.1107 135.296 20.069C134.518 27.7658 133.336 35.4242 132.202 43.073C130.693 53.2202 129.521 63.3673 131.846 73.5337C132.836 77.8482 134.71 81.663 139.101 83.604C141.599 84.7091 144.021 84.7571 146.442 83.3638C147.893 82.5278 149.325 81.6342 150.863 80.9903C153.082 80.0583 154.889 81.2498 155.052 83.652C155.273 86.8999 153.399 89.0716 151.016 90.83C145.654 94.7889 138.217 94.616 132.663 90.5129C129.396 88.101 126.686 85.1895 125.014 81.4804C124.034 79.3088 122.996 79.328 120.978 80.3369C115.79 82.9314 110.562 85.5739 105.104 87.5149C98.5989 89.8307 91.863 89.6961 85.4249 86.9287C77.3725 83.4599 74.2977 76.6375 73.4905 68.4505C73.3848 67.3455 73.4809 66.2212 73.4809 65.097C73.231 65.0681 75.2489 48.137 76.8921 39.7771Z" fill="#DCE0DE"/>
<path d="M591.12 34.6268C590.909 34.6364 590.275 24.912 590.14 20.0498C590.111 19.0985 590.063 18.128 589.871 17.1959C589.564 15.6873 588.651 15.2645 587.527 16.408C586.249 17.7052 584.922 19.0409 584 20.5879C581.876 24.1433 579.983 27.8332 578.004 31.4654C573.959 38.8836 569.904 46.2922 565.897 53.72C564.225 56.8333 565.138 59.3989 568.433 60.1484C570.643 60.6481 573.199 61.1093 575.265 60.4944C579.955 59.0818 584.471 57.0639 588.987 55.1421C590.947 54.3061 591.601 52.5669 591.524 50.4241C591.322 45.1583 591.255 39.8925 591.12 34.6268ZM616.171 89.0044C616.652 88.9948 617.132 88.9948 617.613 88.966C619.371 88.8795 620.745 89.4753 621.504 91.1472C622.302 92.9249 621.687 94.4335 620.476 95.7404C618.583 97.7871 614.355 98.3732 611.28 97.0568C606.168 94.8755 603.333 90.5803 600.941 85.8911C597.712 79.5779 595.915 72.8228 594.762 65.8658C594.022 61.4168 592.629 60.8307 588.584 62.7621C584.577 64.6839 580.502 66.5192 576.332 68.0182C572.094 69.5365 567.982 68.5179 564.119 66.4039C560.458 64.3956 559.41 64.559 556.941 67.951C553.607 72.5345 550.484 77.2717 547.063 81.788C542.787 87.4477 538.098 93.7128 531.419 96.5475C528.239 97.9024 525.298 97.0568 524.097 94.6161C522.925 92.2426 524.164 89.677 526.769 89.8212C532.64 90.1383 536.089 85.4971 539.337 81.4036C549.388 68.7485 558.152 55.219 566.089 41.1705C572.402 29.9952 578.36 18.6277 584.519 7.36589C585.317 5.91492 586.287 4.49277 587.45 3.33008C589.343 1.42748 591.687 1.78304 593.052 4.09882C593.6 5.0309 594.041 6.14554 594.157 7.21214C595.464 19.5982 596.713 31.9939 597.924 44.3896C598.231 47.5125 599.25 48.0987 602.055 46.6477C604.813 45.2256 607.523 43.6593 610.406 42.5254C614.932 40.7477 623.628 42.9578 625.492 46.9552C625.992 48.0218 626.136 49.4727 625.867 50.6162C625.367 52.6822 623.705 53.1626 622.042 51.8078C618.324 48.7617 611.434 48.9635 607.629 51.26C605.995 52.2402 604.563 53.5566 603.007 54.6617C600.403 56.5162 599.586 59.0242 600.374 62.0126C602.065 68.4891 603.641 75.004 605.649 81.3844C607.312 86.7367 611.184 89.2638 616.171 89.0044Z" fill="#DCE0DE"/>
<path d="M413.295 32.3783C413.123 32.3975 411.893 24.6719 411.422 20.7898C411.22 19.1274 411.018 17.4555 410.663 15.8219C410.509 15.1108 409.961 14.4766 409.596 13.804C408.885 14.2076 407.982 14.467 407.492 15.0628C406.492 16.2831 405.522 17.6092 404.868 19.041C402.87 23.3842 401.025 27.7948 399.132 32.1765C396.057 39.268 392.963 46.3499 389.917 53.451C388.475 56.8237 389.638 59.3605 393.097 59.7449C395.423 60.0043 398.065 60.1677 400.16 59.3509C404.494 57.6405 408.587 55.3055 412.719 53.1051C414.766 52.0096 415.409 50.1743 415.092 47.8297C414.41 42.6984 413.882 37.5288 413.295 32.3783ZM443.17 84.1711C443.564 84.1231 443.968 84.0943 444.362 84.0366C446.303 83.7291 447.869 84.2384 448.743 86.1121C449.608 87.9667 448.964 89.6194 447.638 90.9167C445.226 93.2805 442.151 93.54 439.134 92.6751C433.705 91.1185 430.476 86.9481 427.623 82.4127C423.894 76.4743 421.521 69.9882 419.743 63.2522C418.523 58.6303 417.11 58.1978 413.007 60.7058C409.356 62.9351 405.589 65.0299 401.697 66.8268C397.45 68.7966 393.116 68.1336 388.937 66.2502C385.554 64.732 384.363 65.0011 382.422 68.2105C379.404 73.1976 376.666 78.348 373.572 83.2871C369.815 89.3023 365.269 94.645 358.87 98.0562C355.929 99.6225 352.999 99.094 351.557 96.9031C350.02 94.5777 351.019 91.8295 353.748 91.7334C359.523 91.522 362.944 87.9859 365.769 83.6907C374.042 71.1316 381.172 57.9288 387.389 44.2551C393.193 31.4847 398.603 18.5317 404.244 5.69396C404.907 4.17573 405.762 2.68635 406.819 1.41795C408.472 -0.551902 410.797 -0.44621 412.315 1.59091C413.007 2.52299 413.584 3.66648 413.805 4.79074C416.217 17.0135 418.571 29.2458 420.896 41.4781C421.473 44.5146 422.568 44.9758 425.249 43.2558C427.796 41.6222 430.294 39.883 432.984 38.5185C437.443 36.2508 443.305 37.7209 445.495 41.6414C446.11 42.7561 446.255 44.4281 445.957 45.6869C445.572 47.3204 444.294 47.8297 442.593 46.8688C437.914 44.2167 434.743 44.4857 430.534 47.8489C429.227 48.8963 428.084 50.1358 426.815 51.2313C424.48 53.2492 423.846 55.7475 424.855 58.5822C427.133 64.9626 429.304 71.3911 431.908 77.637C434.099 82.749 438.193 84.8822 443.17 84.1711Z" fill="#DCE0DE"/>
<path d="M45.5475 14.3997C45.8262 10.5176 47.2675 6.94304 49.6794 3.85854C50.4385 2.87841 51.4667 1.91749 52.5813 1.46586C53.4366 1.11994 54.9355 1.24487 55.5697 1.8118C56.2136 2.38835 56.473 3.82971 56.2808 4.76179C56.0502 5.86683 55.2238 6.88538 54.532 7.84629C52.418 10.777 51.14 13.9961 51.1208 17.6187C51.0727 26.8818 51.0631 36.1449 51.14 45.4081C51.1496 46.3209 51.6204 47.6566 52.2931 48.0025C52.9561 48.3485 54.2437 47.8968 55.0701 47.4452C56.3193 46.7629 57.3859 45.754 58.5774 44.9468C59.2308 44.5048 59.9515 44.1205 60.6914 43.8706C62.5652 43.246 64.4101 43.2653 65.592 45.1198C66.8604 47.1089 65.986 48.973 64.4581 50.2318C62.5651 51.7885 60.4512 53.1914 58.2315 54.2196C53.648 56.3335 50.6403 59.322 50.6499 64.7126C50.6595 67.4993 50.3424 70.2859 50.131 73.0629C49.8236 77.1948 49.6218 81.3459 49.1029 85.449C48.8723 87.3035 48.2669 89.3695 45.6724 89.3118C43.7506 89.2734 42.4054 87.6591 42.5783 84.9685C42.8762 80.1159 43.4912 75.2826 43.9716 70.4493C44.1926 68.2296 44.404 66.0003 44.5962 63.7806C44.6923 62.7044 44.5097 61.8588 43.0876 61.9741C35.7367 62.5506 29.7598 59.4085 24.2538 55.0171C22.6972 53.7679 21.2654 52.2785 19.5454 51.3368C17.9311 50.4528 16.0381 49.7802 14.222 49.6553C11.3585 49.4535 9.79224 51.0102 9.40788 53.8833C9.23491 55.142 9.36945 56.4296 9.29257 57.7076C8.82173 66.3846 8.40852 75.0712 7.77432 83.7386C7.64941 85.4874 6.8999 87.3131 6.00626 88.8602C5.20871 90.2535 3.73853 91.1856 1.92242 90.4841C0.0774771 89.7635 -0.220399 88.1587 0.125527 86.506C0.750116 83.556 2.0281 80.6829 2.2395 77.7137C3.02744 66.4903 3.55596 55.2381 4.05563 43.9955C4.50725 33.8676 4.74749 23.7204 5.1799 13.5925C5.30482 10.7386 4.5553 8.51893 2.16265 6.74125C1.24979 6.05901 0.192788 3.95462 0.509887 3.57987C1.47079 2.41717 2.98903 1.22564 4.42078 1.05268C7.86082 0.629883 11.1663 4.07953 11.7429 8.52852C12.0984 11.2863 12.1945 14.1018 12.0792 16.8788C11.7621 24.297 11.3105 31.7056 10.8204 39.1142C10.6763 41.2089 11.1952 42.0641 13.5109 42.1506C18.5365 42.3524 22.7644 44.8411 26.954 47.3875C30.2883 49.4054 33.7284 51.2311 37.1684 53.0569C37.9083 53.4508 38.85 53.5469 39.7148 53.6238C43.7506 53.9409 45.2593 52.4707 45.2304 48.3869C45.2016 44.082 45.2208 39.7675 45.2208 35.4531C44.9325 35.4435 45.0382 21.4047 45.5475 14.3997Z" fill="#DCE0DE"/>
</svg>
